<svg width="100" height="99" viewBox="0 0 100 99" fill="none" xmlns="http://www.w3.org/2000/svg">
<g clip-path="url(#clip0_0_3)">
<path d="M52.5562 0H47.3415V5.21472H52.5562V0Z" fill="#FFDF00"/>
<path d="M52.5562 93.456H47.3415V98.6708H52.5562V93.456Z" fill="#FFDF00"/>
<path d="M18.3027 78.5276H13.0879V83.7423H18.3027V78.5276Z" fill="#FFDF00"/>
<path d="M85.3783 78.5276H80.1636V83.7423H85.3783V78.5276Z" fill="#FFDF00"/>
<path d="M18.3027 14.3149H13.0879V19.5297H18.3027V14.3149Z" fill="#FFDF00"/>
<path d="M85.3783 14.3149H80.1636V19.5297H85.3783V14.3149Z" fill="#FFDF00"/>
<path d="M5.21472 46.319H0V51.5337H5.21472V46.319Z" fill="#FFDF00"/>
<path d="M100 46.319H94.7853V51.5337H100V46.319Z" fill="#FFDF00"/>
<path d="M9.5092 23.1084C5.62372 29.0389 3.16973 35.5828 2.24949 42.638L2.14724 43.2515H5.21472L5.31697 42.7403C6.33947 35.8896 8.89571 29.3456 12.7812 23.6196L13.3947 22.8016H9.81595L9.5092 23.1084Z" fill="#FFDF00"/>
<path d="M5.11248 55.1125L5.01023 54.6012H2.04499L2.14724 55.2147C3.06749 62.4744 5.41922 69.1207 9.3047 75.2556L9.5092 75.4601H13.0879L12.4744 74.6421C8.58896 68.8139 6.03272 62.0654 5.11248 55.1125Z" fill="#FFDF00"/>
<path d="M94.683 42.8425L94.7853 43.3538H97.8528L97.7505 42.7403C96.728 35.6851 94.274 29.1411 90.4908 23.2106L90.2863 23.0061H86.7076L87.3211 23.8241C91.1043 29.4479 93.6605 35.9918 94.683 42.8425Z" fill="#FFDF00"/>
<path d="M94.8875 54.6012L94.7853 55.1125C93.865 62.0654 91.3088 68.9162 87.4233 74.6421L86.8098 75.4601H90.3885L90.593 75.2556C94.4785 69.2229 96.9325 62.4744 97.7505 55.2147L97.8528 54.6012H94.8875Z" fill="#FFDF00"/>
<path d="M74.6421 11.5542L74.7444 11.6564H79.8569L78.5276 10.634C72.0859 5.72597 64.3149 2.55624 56.2372 1.53375L55.6237 1.4315V4.49898L56.135 4.60123C62.7812 5.52148 69.0184 7.77096 74.6421 11.5542Z" fill="#FFDF00"/>
<path d="M21.2679 10.634L19.9387 11.6564H25.0511L25.1534 11.5542C30.8793 7.77096 37.1166 5.52148 43.865 4.60123L44.3763 4.49898V1.4315L43.7628 1.53375C35.5828 2.55624 27.8119 5.72597 21.2679 10.634Z" fill="#FFDF00"/>
<path d="M75.1534 86.9121C69.4274 90.6953 62.8834 93.2515 56.0327 94.1718L55.5215 94.274V97.3415L56.135 97.2393C64.4172 96.1145 72.2904 92.9448 78.9366 87.8323L80.2659 86.8098L75.1534 86.9121Z" fill="#FFDF00"/>
<path d="M24.7444 86.9121L24.5399 86.8098H19.5297L20.8589 87.8323C27.5051 92.9448 35.4806 96.1145 43.7628 97.2393L44.3763 97.3415V94.274L43.865 94.1718C37.0143 93.2515 30.3681 90.6953 24.7444 86.9121Z" fill="#FFDF00"/>
<path d="M17.6789 59.4274L5 49.2025L17.7812 40L20.7464 44.1922L13.4867 49.407L20.8487 55.4397L17.6789 59.4274Z" fill="#FFDF00"/>
<path d="M82.1697 59.4274L79 55.4397L86.362 49.407L79.1023 44.1922L82.0675 40L94.8487 49.2025L82.1697 59.4274Z" fill="#FFDF00"/>
<path d="M79.6456 34.6687L74.8133 33L64 64.3134L68.8323 65.9821L79.6456 34.6687Z" fill="#FFDF00"/>
<path d="M25.008 53.512C24.624 53.512 24.2187 53.4587 23.792 53.352C23.3653 53.2453 22.9813 53.0747 22.64 52.84C22.32 52.584 22.1067 52.2427 22 51.816C21.9787 51.752 21.968 51.656 21.968 51.528C21.968 51.2293 22.032 50.8987 22.16 50.536C22.3093 50.1733 22.4907 49.9173 22.704 49.768C22.7893 49.7253 22.8533 49.7253 22.896 49.768C22.96 49.8107 22.9707 49.8533 22.928 49.896C22.9067 49.96 22.8747 50.0453 22.832 50.152C22.7893 50.2373 22.7573 50.3333 22.736 50.44C22.672 50.9947 22.7893 51.4853 23.088 51.912C23.216 52.0827 23.3653 52.2427 23.536 52.392C23.728 52.5413 23.9093 52.6693 24.08 52.776C24.2293 52.8613 24.4107 52.9253 24.624 52.968C24.8373 52.9893 25.0507 53 25.264 53C25.6053 53 25.936 52.9573 26.256 52.872C26.576 52.7867 26.8107 52.648 26.96 52.456C27.2373 52.1147 27.376 51.7307 27.376 51.304C27.376 50.984 27.2907 50.6427 27.12 50.28C26.9493 49.9173 26.6827 49.5333 26.32 49.128C26.0853 48.872 25.8613 48.5947 25.648 48.296C25.4347 47.9973 25.296 47.6773 25.232 47.336C25.2107 47.272 25.1893 47.208 25.168 47.144C25.168 47.08 25.168 47.016 25.168 46.952C24.8907 47.3573 24.6027 47.7413 24.304 48.104C24.0267 48.4453 23.7813 48.744 23.568 49C23.4827 49.128 23.408 49.192 23.344 49.192C23.3013 49.192 23.28 49.1493 23.28 49.064C23.28 48.872 23.3653 48.6693 23.536 48.456C23.7067 48.264 23.8987 48.0293 24.112 47.752C24.3253 47.4533 24.496 47.2187 24.624 47.048C24.9867 46.5147 25.2533 46.0987 25.424 45.8C25.616 45.48 25.8187 45.192 26.032 44.936C26.2667 44.6587 26.5547 44.4347 26.896 44.264C27.2587 44.0933 27.632 44.008 28.016 44.008C28.464 44.008 28.8693 44.0827 29.232 44.232C29.616 44.36 29.8187 44.7013 29.84 45.256C29.84 45.512 29.7867 45.7787 29.68 46.056C29.5947 46.312 29.4987 46.5573 29.392 46.792C29.328 46.92 29.232 47.016 29.104 47.08C28.9973 47.1227 28.944 47.1013 28.944 47.016C28.944 46.9307 28.9547 46.8347 28.976 46.728C28.9973 46.6213 29.008 46.5253 29.008 46.44C29.008 46.0773 28.944 45.7573 28.816 45.48C28.7093 45.1813 28.5493 44.968 28.336 44.84C28.1227 44.6907 27.8987 44.616 27.664 44.616C27.3227 44.616 26.992 44.7547 26.672 45.032C26.352 45.288 26.192 45.6293 26.192 46.056C26.192 46.0987 26.192 46.152 26.192 46.216C26.192 46.28 26.2027 46.3333 26.224 46.376C26.3093 46.7173 26.5653 47.1013 26.992 47.528C27.4187 47.9547 27.7493 48.328 27.984 48.648C28.3893 49.2027 28.592 49.768 28.592 50.344C28.592 50.92 28.4213 51.4533 28.08 51.944C27.76 52.4133 27.3227 52.7867 26.768 53.064C26.2347 53.3627 25.648 53.512 25.008 53.512ZM36.4775 48.392C36.2215 48.3707 35.9442 48.3493 35.6455 48.328C35.3682 48.2853 35.0162 48.264 34.5895 48.264C34.0988 48.264 33.6402 48.2747 33.2135 48.296C32.8082 48.296 32.3602 48.3173 31.8695 48.36C31.8268 48.36 31.8482 48.2853 31.9335 48.136C32.0188 47.9867 32.1255 47.8373 32.2535 47.688C32.4028 47.5387 32.5095 47.4747 32.5735 47.496C32.8082 47.5387 33.1068 47.5707 33.4695 47.592C33.8535 47.592 34.2482 47.6027 34.6535 47.624C35.2082 47.624 35.6988 47.6133 36.1255 47.592C36.5522 47.5707 36.9042 47.5493 37.1815 47.528C37.2242 47.528 37.2028 47.6027 37.1175 47.752C37.0322 47.9013 36.9255 48.0507 36.7975 48.2C36.6695 48.328 36.5628 48.392 36.4775 48.392ZM38.6863 53.448C38.6009 53.448 38.6009 53.3627 38.6863 53.192C38.7929 53 38.8889 52.7867 38.9743 52.552C39.0809 52.3173 39.1876 52.0613 39.2943 51.784C39.5076 51.272 39.7423 50.696 39.9983 50.056C40.2543 49.416 40.4996 48.7973 40.7343 48.2C40.9689 47.5813 41.1716 47.0587 41.3423 46.632C41.5343 46.184 41.6623 45.896 41.7263 45.768C41.4276 46.088 41.0649 46.4933 40.6383 46.984C40.2329 47.4533 39.8489 47.912 39.4863 48.36C39.1236 48.808 38.8463 49.16 38.6543 49.416C38.5903 49.5013 38.5369 49.544 38.4943 49.544C38.4516 49.544 38.4303 49.4907 38.4303 49.384C38.4303 49.2133 38.4836 49.0533 38.5903 48.904C38.9956 48.392 39.4436 47.816 39.9343 47.176C40.4463 46.536 40.9049 45.9493 41.3103 45.416C41.7156 44.8613 41.9716 44.4987 42.0783 44.328C42.3129 44.2853 42.6543 44.2213 43.1023 44.136C43.5716 44.0507 43.8916 43.9333 44.0623 43.784C44.1263 43.72 44.1903 43.688 44.2543 43.688C44.2969 43.688 44.3183 43.7307 44.3183 43.816C44.3396 43.88 44.3183 43.9547 44.2543 44.04C44.1263 44.168 43.9343 44.4453 43.6783 44.872C43.4436 45.2987 43.1769 45.7893 42.8783 46.344C42.5796 46.8987 42.2916 47.432 42.0143 47.944C42.2276 47.624 42.5049 47.2507 42.8463 46.824C43.2089 46.376 43.6036 45.9493 44.0303 45.544C44.4569 45.1173 44.8836 44.7653 45.3103 44.488C45.7583 44.2107 46.1743 44.072 46.5583 44.072C46.8356 44.072 47.0703 44.136 47.2623 44.264C47.4543 44.3707 47.6036 44.5733 47.7103 44.872C47.7743 45.0213 47.8063 45.192 47.8063 45.384C47.8063 45.7467 47.7103 46.0987 47.5183 46.44C47.3476 46.76 47.2196 47.0053 47.1343 47.176C47.1129 47.24 47.0383 47.304 46.9103 47.368C46.7823 47.4107 46.7289 47.3893 46.7503 47.304C46.7716 47.1973 46.7823 47.0907 46.7823 46.984C46.8036 46.8773 46.8142 46.76 46.8142 46.632C46.8142 46.2693 46.7396 45.9387 46.5903 45.64C46.4623 45.3413 46.2169 45.192 45.8542 45.192C45.5129 45.192 45.0969 45.4053 44.6063 45.832C44.1156 46.2587 43.6249 46.7493 43.1343 47.304C42.5156 48.0293 42.0249 48.7227 41.6623 49.384C41.2996 50.024 41.0009 50.6533 40.7663 51.272C40.6383 51.6133 40.5103 51.9547 40.3823 52.296C40.2543 52.616 40.1583 52.872 40.0943 53.064C39.8169 53.0853 39.5396 53.1493 39.2623 53.256C38.9849 53.384 38.7929 53.448 38.6863 53.448ZM51.565 53.096C51.3517 53.096 51.1703 53.0533 51.021 52.968C50.8717 52.8827 50.797 52.7227 50.797 52.488C50.797 52.1893 50.8717 51.848 51.021 51.464C51.1703 51.08 51.341 50.7067 51.533 50.344C51.725 49.96 51.8957 49.6507 52.045 49.416C51.2983 50.2053 50.5197 50.952 49.709 51.656C49.3037 51.9973 48.8557 52.3173 48.365 52.616C47.8743 52.9147 47.3517 53.064 46.797 53.064C46.5837 53.064 46.4343 53 46.349 52.872C46.2637 52.7227 46.221 52.552 46.221 52.36C46.221 52.2533 46.2317 52.1787 46.253 52.136C46.3597 51.304 46.6263 50.44 47.053 49.544C47.4797 48.648 48.0023 47.8053 48.621 47.016C49.2397 46.2267 49.869 45.5867 50.509 45.096C51.2343 44.5413 52.0343 44.264 52.909 44.264H56.589C56.6957 44.264 56.749 44.3067 56.749 44.392C56.749 44.5627 56.653 44.648 56.461 44.648C56.2477 44.648 56.0343 44.7867 55.821 45.064C55.6077 45.32 55.4477 45.5333 55.341 45.704C55.1917 45.9387 54.957 46.3333 54.637 46.888C54.317 47.4427 53.9863 48.0507 53.645 48.712C53.325 49.352 53.0477 49.9493 52.813 50.504C52.5783 51.0587 52.461 51.464 52.461 51.72C52.461 52.0187 52.6103 52.168 52.909 52.168C53.229 52.168 53.5917 52.0187 53.997 51.72C54.4023 51.4213 54.8077 51.0587 55.213 50.632C55.6397 50.184 56.0237 49.7467 56.365 49.32C56.7277 48.872 57.0157 48.52 57.229 48.264C57.357 48.392 57.3463 48.5733 57.197 48.808C57.069 49.0213 56.9517 49.192 56.845 49.32C56.4183 49.8747 55.9277 50.4507 55.373 51.048C54.8183 51.624 54.2103 52.1147 53.549 52.52C52.909 52.904 52.2477 53.096 51.565 53.096ZM48.109 51.976C48.365 51.976 48.717 51.7947 49.165 51.432C49.6343 51.048 50.1357 50.5787 50.669 50.024C51.2023 49.448 51.7037 48.8507 52.173 48.232C52.6423 47.592 53.0263 47.016 53.325 46.504C53.645 45.9707 53.805 45.5653 53.805 45.288C53.805 45.0533 53.7303 44.8933 53.581 44.808C53.453 44.7227 53.2823 44.68 53.069 44.68C52.7277 44.68 52.3543 44.808 51.949 45.064C51.565 45.2987 51.2557 45.5333 51.021 45.768C50.765 46.0027 50.4557 46.376 50.093 46.888C49.7517 47.3787 49.4103 47.9227 49.069 48.52C48.7277 49.1173 48.4397 49.6933 48.205 50.248C47.9703 50.8027 47.853 51.2507 47.853 51.592C47.853 51.848 47.9383 51.976 48.109 51.976ZM53.3232 64.2C52.5126 64.2 51.7339 64.008 50.9872 63.624C50.2192 63.2613 49.6539 62.696 49.2912 61.928C49.1632 61.6507 49.0779 61.352 49.0352 61.032C48.9926 60.7333 48.9712 60.4347 48.9712 60.136V59.784C48.9712 59.6133 48.9926 59.4533 49.0352 59.304C49.0779 59.176 49.1846 59.112 49.3552 59.112C49.3979 59.112 49.4192 59.1333 49.4192 59.176C49.4192 59.304 49.4086 59.432 49.3872 59.56C49.3659 59.688 49.3552 59.8267 49.3552 59.976C49.3552 60.9573 49.6752 61.704 50.3152 62.216C50.9339 62.728 51.7126 62.984 52.6512 62.984C53.0352 62.984 53.4299 62.9413 53.8352 62.856C54.2406 62.7707 54.6246 62.6533 54.9872 62.504C56.3313 61.928 57.4939 61.1067 58.4753 60.04C59.4779 58.9947 60.3526 57.8107 61.0993 56.488C61.8459 55.1653 62.5179 53.8213 63.1153 52.456C63.4566 51.6453 63.7553 50.856 64.0113 50.088C64.2886 49.32 64.5339 48.6267 64.7473 48.008C64.5339 48.3067 64.2566 48.6693 63.9153 49.096C63.5739 49.5227 63.2326 49.9387 62.8913 50.344C62.5499 50.728 62.2513 51.0373 61.9953 51.272C61.4619 51.784 60.8859 52.2213 60.2673 52.584C59.6699 52.9253 59.0513 53.096 58.4113 53.096C58.1979 53.096 58.0166 53.0533 57.8673 52.968C57.7179 52.8827 57.6432 52.7227 57.6432 52.488C57.6432 52.1893 57.7179 51.8373 57.8673 51.432C58.0379 51.0267 58.2193 50.6213 58.4113 50.216C58.6033 49.8107 58.7633 49.48 58.8913 49.224C59.1473 48.7333 59.3926 48.2427 59.6273 47.752C59.8619 47.2613 60.0646 46.8453 60.2352 46.504C60.4059 46.184 60.4913 45.9707 60.4913 45.864C60.4913 45.6933 60.3633 45.6933 60.1073 45.864C59.8726 46.0347 59.6486 46.2053 59.4353 46.376C58.9659 46.824 58.4753 47.3573 57.9633 47.976C57.4513 48.5733 57.0566 49.0533 56.7793 49.416C56.7153 49.5013 56.6619 49.544 56.6193 49.544C56.5766 49.544 56.5553 49.4907 56.5553 49.384C56.5553 49.2133 56.6086 49.0533 56.7153 48.904C57.0139 48.4773 57.3659 48.008 57.7713 47.496C58.1766 46.984 58.5926 46.4933 59.0193 46.024C59.4246 45.5973 59.8406 45.1813 60.2673 44.776C60.6939 44.3707 61.2379 44.168 61.8993 44.168C62.3473 44.168 62.5713 44.3387 62.5713 44.68C62.5713 44.9787 62.4433 45.32 62.1873 45.704C62.0379 45.9387 61.8033 46.3333 61.4833 46.888C61.1633 47.4427 60.8326 48.0507 60.4913 48.712C60.1713 49.352 59.8939 49.9493 59.6593 50.504C59.4246 51.0587 59.3073 51.464 59.3073 51.72C59.3073 52.0187 59.4566 52.168 59.7552 52.168C59.9899 52.168 60.2779 52.0507 60.6193 51.816C60.9606 51.56 61.3126 51.2613 61.6753 50.92C62.2939 50.3227 62.8593 49.6613 63.3713 48.936C63.9046 48.2107 64.3633 47.5173 64.7473 46.856C64.8113 46.7493 64.9179 46.5573 65.0673 46.28C65.2379 46.0027 65.4086 45.736 65.5793 45.48C65.7713 45.224 65.9206 45.0747 66.0273 45.032C66.1339 44.9893 66.3473 44.872 66.6673 44.68C66.9873 44.488 67.3073 44.36 67.6273 44.296C67.9259 44.232 68.1499 44.2 68.2993 44.2C68.5339 44.2 68.6513 44.264 68.6513 44.392C68.6513 44.5627 68.5553 44.648 68.3633 44.648C68.1286 44.648 67.9153 44.712 67.7233 44.84C67.5313 44.9467 67.3819 45.0853 67.2753 45.256C67.0833 45.5333 66.8059 46.0347 66.4433 46.76C66.1019 47.4853 65.7179 48.328 65.2913 49.288C64.8859 50.2267 64.4806 51.1867 64.0753 52.168C63.6699 53.128 63.2966 54.0133 62.9553 54.824C62.4433 56.04 61.8566 57.224 61.1953 58.376C60.5339 59.5493 59.7553 60.5947 58.8593 61.512C57.9846 62.4507 56.9393 63.1867 55.7233 63.72C54.9979 64.04 54.1979 64.2 53.3232 64.2Z" fill="#BC9B62"/>
</g>
<defs>
<clipPath id="clip0_0_3">
<rect width="100" height="98.6708" fill="white"/>
</clipPath>
</defs>
</svg>
